<svg width="49" height="49" viewBox="0 0 49 49" fill="none" xmlns="http://www.w3.org/2000/svg">
<g clip-path="url(#clip0_5_69)">
<path d="M34.6362 42.2869V38.2121C34.6362 36.0506 33.7775 33.9777 32.2492 32.4494C30.7208 30.921 28.6479 30.0624 26.4865 30.0624H10.1871C8.02568 30.0624 5.95277 30.921 4.42441 32.4494C2.89605 33.9777 2.03742 36.0506 2.03742 38.2121V42.2869" stroke="white" stroke-width="2.99376" stroke-linecap="round" stroke-linejoin="round"/>
<path d="M18.3368 21.9127C22.8378 21.9127 26.4865 18.2639 26.4865 13.763C26.4865 9.26202 22.8378 5.61328 18.3368 5.61328C13.8359 5.61328 10.1871 9.26202 10.1871 13.763C10.1871 18.2639 13.8359 21.9127 18.3368 21.9127Z" stroke="white" stroke-width="2.99376" stroke-linecap="round" stroke-linejoin="round"/>
<path d="M46.8607 42.2868V38.212C46.8594 36.4063 46.2584 34.6521 45.1521 33.225C44.0458 31.7979 42.4968 30.7786 40.7484 30.3271" stroke="white" stroke-width="2.99376" stroke-linecap="round" stroke-linejoin="round"/>
<path d="M32.5988 5.87817C34.3518 6.32702 35.9056 7.34655 37.0151 8.77602C38.1247 10.2055 38.727 11.9636 38.727 13.7732C38.727 15.5828 38.1247 17.3409 37.0151 18.7703C35.9056 20.1998 34.3518 21.2193 32.5988 21.6682" stroke="white" stroke-width="2.99376" stroke-linecap="round" stroke-linejoin="round"/>
</g>
<defs>
<clipPath id="clip0_5_69">
<rect width="48.8981" height="48.8981" fill="white" transform="translate(0 -0.498901)"/>
</clipPath>
</defs>
</svg>
